<?xml version="1.0" standalone="no"?>
<!DOCTYPE svg PUBLIC "-//W3C//DTD SVG 20010904//EN"
 "http://www.w3.org/TR/2001/REC-SVG-20010904/DTD/svg10.dtd">
<svg version="1.0" xmlns="http://www.w3.org/2000/svg"
 width="72.000000pt" height="72.000000pt" viewBox="0 0 72.000000 72.000000"
 preserveAspectRatio="xMidYMid meet">
<metadata>
Created by potrace 1.11, written by Peter Selinger 2001-2013
</metadata>
<g transform="translate(0.000000,72.000000) scale(0.100000,-0.100000)"
fill="#000000" stroke="none">
<path d="M0 360 l0 -360 360 0 360 0 0 360 0 360 -360 0 -360 0 0 -360z m210
250 c0 -103 18 -105 22 -2 4 99 22 97 26 -3 4 -101 22 -96 22 6 0 51 4 78 10
74 6 -3 10 -40 10 -81 0 -97 18 -96 22 1 5 116 23 97 26 -28 3 -103 2 -108
-22 -132 -25 -25 -26 -28 -28 -213 l-3 -187 -30 0 -30 0 -3 189 c-2 176 -4
190 -22 203 -18 13 -20 26 -20 134 0 73 4 119 10 119 6 0 10 -33 10 -80z m300
60 c20 -20 20 -31 18 -323 l-3 -302 -30 0 -30 0 -3 121 c-2 112 -4 122 -22
127 -19 5 -20 14 -20 181 0 163 2 178 20 196 25 25 45 25 70 0z"/>
</g>
</svg>
